<?xml version="1.0" encoding="UTF-8"?>
<svg id="Layer_1" data-name="Layer 1" xmlns="http://www.w3.org/2000/svg" viewBox="0 0 213.65 207.6">
  <defs>
    <style>
      .cls-1 {
        fill: #662d91;
      }

      .cls-2 {
        fill: #f15a24;
      }

      .cls-3 {
        fill: #00a99d;
      }

      .cls-4 {
        fill: #0071bc;
      }

      .cls-5 {
        fill: #3fa9f5;
      }

      .cls-6 {
        fill: #39b54a;
      }

      .cls-7 {
        fill: red;
      }

      .cls-8 {
        fill: #fbb03b;
      }
    </style>
  </defs>
  <polygon class="cls-8" points="52.26 128.08 37.06 164.33 10.87 167.9 44.06 125.05 52.26 128.08"/>
  <polygon class="cls-5" points="202.87 167.9 175.37 164.16 165.14 141.93 181.16 139.89 202.87 167.9"/>
  <polygon class="cls-3" points="143.76 144.64 141.86 159.59 141.13 165.37 135.76 207.6 118.95 185.47 128.53 159.57 129.16 157.86 133.58 145.93 143.76 144.64"/>
  <polygon class="cls-1" points="185.46 22.14 182 30.38 182 30.38 158.88 85.49 138 77.77 128.65 54.91 127.18 51.31 125.67 47.22 185.46 22.14"/>
  <polygon class="cls-2" points="69.89 62.96 67.63 80.77 54.56 85.6 30.05 94.67 0 71.83 45.57 66.04 69.89 62.96"/>
  <polygon class="cls-6" points="85.83 161.27 36.29 182.06 28.66 185.26 28.19 185.46 37.06 164.33 52.26 128.08 54.56 128.93 76.93 137.21 84.57 157.86 85.2 159.57 85.83 161.27"/>
  <polygon class="cls-4" points="213.65 135.76 181.16 139.89 165.14 141.93 143.76 144.64 133.58 145.93 136.81 137.21 145.09 134.14 159.17 128.93 169.67 125.05 189.76 117.61 213.65 135.76"/>
  <polygon class="cls-7" points="96.49 24.47 86.57 51.28 85.08 54.91 82.44 61.36 75.73 77.77 67.63 80.77 69.89 62.96 71.7 48.75 77.89 0 96.49 24.47"/>
</svg>
